<svg id="グループ_2000" data-name="グループ 2000" xmlns="http://www.w3.org/2000/svg" width="126.361" height="105.764" viewBox="0 0 126.361 105.764">
  <path id="パス_4887" data-name="パス 4887" d="M216.235,864.085h84.232" transform="translate(-198.544 -766.282)" fill="#ab9f66"/>
  <path id="パス_4899" data-name="パス 4899" d="M217.215,250.384h-.834v-39.2a7.582,7.582,0,0,0-7.582-7.582H104.349a7.582,7.582,0,0,0-7.582,7.582V275.2a5.888,5.888,0,0,0,5.888,5.914h34.4l-2.527,9.351H131.29a10.918,10.918,0,0,0-10.614,8.416h-6.217a2.527,2.527,0,0,0,0,5.054h69.954a5.889,5.889,0,0,0,5.863,5.434h26.94a5.914,5.914,0,0,0,5.914-5.914V256.3A5.914,5.914,0,0,0,217.215,250.384ZM135.51,208.66H208.8a2.527,2.527,0,0,1,2.527,2.527v39.2H190.275a5.914,5.914,0,0,0-5.914,5.914v7.961H135.51Zm48.851,82.11a11.729,11.729,0,0,0-2.527-.3H178.7l-2.527-9.351h8.289Zm-82.539-79.582a2.527,2.527,0,0,1,2.527-2.527h26.106v55.6H101.822Zm.834,64.874a.859.859,0,0,1-.834-.859v-5.888h82.539v6.748Zm70.762,14.405H139.68l2.527-9.351h28.684Zm-42.154,5.054h50.545a5.711,5.711,0,0,1,2.527.581v2.78H125.982a5.888,5.888,0,0,1,5.307-3.361Zm86.785,7.936a.859.859,0,0,1-.859.859H190.275a.859.859,0,0,1-.859-.859v-3.639h28.659Zm0-8.593H189.416V256.3a.859.859,0,0,1,.859-.859h26.94a.859.859,0,0,1,.859.859Z" transform="translate(-96.768 -203.605)" fill="#ab9f66"/>
  <path id="パス_4900" data-name="パス 4900" d="M315.374,333.994H305.265a2.527,2.527,0,0,0,0,5.054h10.109a2.527,2.527,0,1,0,0-5.054ZM231.142,291.84h-6.748a2.527,2.527,0,0,0,0,5.054h6.748a2.527,2.527,0,1,0,0-5.054Z" transform="translate(-203.342 -278.774)" fill="#ab9f66"/>
  <path id="パス_4901" data-name="パス 4901" d="M161.759,294.367m-2.527,0a2.527,2.527,0,1,0,2.527-2.527A2.527,2.527,0,0,0,159.232,294.367Z" transform="translate(-149.982 -278.774)" fill="#ab9f66"/>
  <path id="パス_4902" data-name="パス 4902" d="M231.142,382.805h-6.748a2.527,2.527,0,0,0,0,5.054h6.748a2.527,2.527,0,1,0,0-5.054Zm0,8.416h-6.748a2.527,2.527,0,0,0,0,5.054h6.748a2.527,2.527,0,1,0,0-5.054Z" transform="translate(-203.342 -356.269)" fill="#ab9f66"/>
  <path id="パス_4903" data-name="パス 4903" d="M161.759,385.333m-2.527,0a2.527,2.527,0,1,0,2.527-2.527A2.527,2.527,0,0,0,159.232,385.333Z" transform="translate(-149.982 -356.269)" fill="#ab9f66"/>
  <path id="パス_4904" data-name="パス 4904" d="M458.1,302.171A10.968,10.968,0,1,0,447.134,291.2,10.968,10.968,0,0,0,458.1,302.171Zm0-16.857a5.914,5.914,0,1,1-5.914,5.888A5.914,5.914,0,0,1,458.1,285.314ZM409.226,295.6h15.163a2.527,2.527,0,0,0,0-5.054H409.226a2.527,2.527,0,0,0,0,5.054Zm22.467,3.361H409.226a2.527,2.527,0,0,0,0,5.054h22.467a2.527,2.527,0,1,0,0-5.054Zm7.582-17.008H409.226a2.527,2.527,0,0,0,0,5.054h30.049a2.527,2.527,0,0,0,0-5.054ZM423.126,319h-13.9a2.527,2.527,0,0,0,0,5.054h13.9a2.527,2.527,0,1,0,0-5.054Zm-13.9-3.361h5.914a2.527,2.527,0,1,0,0-5.054h-5.914a2.527,2.527,0,0,0,0,5.054Z" transform="translate(-360.804 -268.887)" fill="#ab9f66"/>
</svg>
