<svg xmlns="http://www.w3.org/2000/svg" width="123.902" height="100.302" viewBox="0 0 123.902 100.302">
  <path id="box-107" d="M179.052,196.534h-21.27a8.85,8.85,0,0,0,.62-2.95v-35.4a8.85,8.85,0,0,0-8.85-8.85h-47.2a8.85,8.85,0,0,0-8.85,8.85v35.4a8.85,8.85,0,0,0,.561,2.95H72.85a8.85,8.85,0,0,0-8.85,8.85v35.4a8.85,8.85,0,0,0,8.85,8.85h47.2a8.85,8.85,0,0,0,5.9-2.242,8.85,8.85,0,0,0,5.9,2.242h47.2a8.85,8.85,0,0,0,8.85-8.85v-35.4A8.85,8.85,0,0,0,179.052,196.534Zm-29.5,5.9h11.8v15.134l-5.9-3.924-5.9,3.924Zm-17.7-47.2v15.134l-5.9-3.924-5.9,3.924V155.233ZM99.4,193.584v-35.4a2.95,2.95,0,0,1,2.95-2.95h11.8V181.4l11.8-7.877,11.8,7.877V155.233h11.8a2.95,2.95,0,0,1,2.95,2.95v35.4a2.95,2.95,0,0,1-2.95,2.95h-47.2A2.95,2.95,0,0,1,99.4,193.584Zm2.95,8.85v15.134l-5.9-3.924-5.9,3.924V202.434Zm17.7,41.3H72.85a2.95,2.95,0,0,1-2.95-2.95v-35.4a2.95,2.95,0,0,1,2.95-2.95h11.8V228.6l11.8-7.877,11.8,7.877V202.434h11.8a2.95,2.95,0,0,1,2.95,2.449v36.4A2.95,2.95,0,0,1,120.051,243.735ZM182,240.785a2.95,2.95,0,0,1-2.95,2.95h-47.2a2.95,2.95,0,0,1-2.95-2.449v-36.4a2.95,2.95,0,0,1,2.95-2.449h11.8V228.6l11.8-7.877,11.8,7.877V202.434h11.8a2.95,2.95,0,0,1,2.95,2.95Z" transform="translate(-64 -149.333)" fill="#ab9f66"/>
</svg>
