<svg xmlns="http://www.w3.org/2000/svg" width="134.013" height="100.672" viewBox="0 0 134.013 100.672">
  <path id="data-7" d="M210.341,262.718h-9.554V262.4l-2.56-4.435L185.412,305.8a3.222,3.222,0,0,1-2.089,2.067l-12.9,3.455L159.67,271.176A12.026,12.026,0,0,0,175.139,267l2.04,7.614L187.9,234.589a2.67,2.67,0,0,1,3.27-1.888l12.9,3.455-.022.083.1-.057,6,10.393a12.017,12.017,0,0,0,.193,16.143Zm17.609,0a12.017,12.017,0,0,0,.3-16.021h16.765v13.351a2.67,2.67,0,0,1-2.67,2.67Zm-72.923-8.872-2.353-8.78-4.168,15.557-.122-.033v.018H111V247.256a2.67,2.67,0,0,1,2.67-2.67h22.545l8.563-31.958a2.67,2.67,0,0,1,3.27-1.888l12.9,3.455-.042.156.118-.032,9.486,35.4a12.026,12.026,0,0,0-15.481,4.125Zm10.213,15.047a8.011,8.011,0,1,1,8.011-8.011A8.011,8.011,0,0,1,165.239,268.893Zm53.906-6.342a8.011,8.011,0,1,1,8.011-8.011A8.011,8.011,0,0,1,219.145,262.551Z" transform="translate(-111 -210.648)" fill="#ab9f66"/>
</svg>
