<svg xmlns="http://www.w3.org/2000/svg" width="165.256" height="109.838" viewBox="0 0 165.256 109.838">
  <g id="グループ_2286" data-name="グループ 2286" transform="translate(-1082.372 -3369.715)">
    <path id="bag-79" d="M157.506,92.771H143.12V91.76A27.676,27.676,0,0,0,115.361,64h-1.8A27.868,27.868,0,0,0,85.578,91.76v1.011H71.193L64,164.7H164.7ZM92.771,91.76a20.712,20.712,0,0,1,20.792-20.567h1.8A20.519,20.519,0,0,1,135.928,91.76v1.011H92.771ZM72.047,157.506l5.6-57.542h7.935v8.159a7.193,7.193,0,1,0,7.193,0V99.964h43.157v8.159a7.193,7.193,0,1,0,7.193,0V99.964h7.957l5.6,57.542Z" transform="translate(1018.372 3314.854)" fill="#ab9f66"/>
    <g id="watch-19" transform="translate(1192.92 3369.715)">
      <path id="パス_4905" data-name="パス 4905" d="M198.021,225.375a27.354,27.354,0,1,1,27.354-27.354A27.434,27.434,0,0,1,198.021,225.375Zm0-47.87a20.516,20.516,0,1,0,20.515,20.516A20.576,20.576,0,0,0,198.021,177.505Z" transform="translate(-170.667 -156.99)" fill="#ab9f66"/>
      <path id="パス_4906" data-name="パス 4906" d="M300.667,49.579a3.1,3.1,0,0,1-2.393-1.026l-5.129-5.129a3.1,3.1,0,0,1-1.026-2.393V30.773a3.419,3.419,0,1,1,6.839,0v8.89l4.1,4.1a3.305,3.305,0,0,1,0,4.787A3.1,3.1,0,0,1,300.667,49.579ZM288.016,82.062a10.365,10.365,0,0,1-10.258-9.232l-1.026-12.993c-.342-1.71,1.368-3.419,3.077-3.761a3.72,3.72,0,0,1,3.761,3.077L284.6,72.146a3.373,3.373,0,0,0,3.419,3.077h14.7a3.373,3.373,0,0,0,3.419-3.077l1.026-12.993c.342-1.71,1.71-3.419,3.761-3.077,1.71.342,3.419,1.71,3.077,3.761L312.976,72.83c-.342,5.471-4.787,9.232-10.258,9.232h-14.7Zm22.909-56.076a3.636,3.636,0,0,1-3.419-3.077L306.138,9.916a3.373,3.373,0,0,0-3.419-3.077h-14.7A3.636,3.636,0,0,0,284.6,9.916l-1.026,12.993c-.342,2.052-1.71,3.419-3.761,3.077s-3.419-1.71-3.077-3.761l1.026-12.993A10.627,10.627,0,0,1,288.016,0H303.06a10.365,10.365,0,0,1,10.258,9.232l1.368,12.993a3.587,3.587,0,0,1-3.761,3.761Z" transform="translate(-268.184 0)" fill="#ab9f66"/>
    </g>
  </g>
</svg>
