<svg xmlns="http://www.w3.org/2000/svg" width="106.77" height="106.77" viewBox="0 0 106.77 106.77">
  <path id="ak-mn-free" d="M72.77,145.756A52.817,52.817,0,0,1,64,116.585,53.346,53.346,0,0,1,146.652,71.97L141.122,77.5a45.64,45.64,0,0,0-69.4,39.086,44.388,44.388,0,0,0,6.673,23.642Zm21.735-36.7v7.626h7.436l7.626-7.626Zm6.768-22.879L95.84,91.609l15.539,15.539,5.434-5.434Zm58.438-16.492,5.434,5.434-6.959,6.959a53.4,53.4,0,0,1-75.311,75.216l-7.531,7.531-5.434-5.434m93.233-42.8a45.693,45.693,0,0,0-10.391-29.076L131.3,109.054h8.961v7.626H123.677l-2.383,2.383v5.243h18.971v7.626H121.294v22.879h-7.626V131.933h-5.243L88.309,151.857a45.789,45.789,0,0,0,74.834-35.272Z" transform="translate(-64 -63.2)" fill="#ab9f66"/>
</svg>
