<svg xmlns="http://www.w3.org/2000/svg" width="47" height="47" viewBox="0 0 47 47">
  <g id="グループ_2276" data-name="グループ 2276" transform="translate(-1487 -310)">
    <circle id="楕円形_32" data-name="楕円形 32" cx="23.5" cy="23.5" r="23.5" transform="translate(1487 310)" fill="#57c357"/>
    <path id="パス_401" data-name="パス 401" d="M418.021,291.418H416.8a.339.339,0,0,0-.339.339v7.591a.339.339,0,0,0,.339.338h1.222a.339.339,0,0,0,.339-.338v-7.591a.339.339,0,0,0-.339-.339" transform="translate(1088.438 37.948)" fill="#fff"/>
    <path id="パス_402" data-name="パス 402" d="M431.09,291.418h-1.222a.339.339,0,0,0-.339.339v4.51l-3.479-4.7c-.008-.012-.017-.023-.026-.034l0,0-.021-.021-.006-.006-.019-.015-.009-.007-.017-.012-.01-.006-.018-.01-.011-.005-.02-.008-.011,0-.02-.007-.012,0-.02,0-.014,0-.018,0h-1.252a.34.34,0,0,0-.34.339v7.591a.339.339,0,0,0,.34.338h1.222a.339.339,0,0,0,.339-.338v-4.508l3.483,4.7a.335.335,0,0,0,.086.084l0,0,.021.012.01.006.016.008.017.007.01,0,.024.008h0a.326.326,0,0,0,.087.011h1.222a.339.339,0,0,0,.339-.338v-7.591a.339.339,0,0,0-.339-.339" transform="translate(1083.78 37.948)" fill="#fff"/>
    <path id="パス_403" data-name="パス 403" d="M405.116,297.785H401.8v-6.028a.339.339,0,0,0-.339-.339h-1.222a.339.339,0,0,0-.339.339v7.59h0a.337.337,0,0,0,.1.234l0,.006,0,0a.338.338,0,0,0,.234.095h4.882a.339.339,0,0,0,.339-.34v-1.222a.339.339,0,0,0-.339-.34" transform="translate(1098.398 37.948)" fill="#fff"/>
    <path id="パス_404" data-name="パス 404" d="M450.522,293.319a.339.339,0,0,0,.339-.339v-1.222a.339.339,0,0,0-.339-.339H445.64a.338.338,0,0,0-.235.1l0,0-.006.006a.338.338,0,0,0-.094.234h0v7.589h0a.336.336,0,0,0,.095.234l0,.006,0,0a.338.338,0,0,0,.234.1h4.882a.34.34,0,0,0,.339-.34v-1.222a.339.339,0,0,0-.339-.34H447.2V296.5h3.32a.339.339,0,0,0,.339-.339v-1.222a.339.339,0,0,0-.339-.34H447.2v-1.283Z" transform="translate(1071.096 37.948)" fill="#fff"/>
  </g>
</svg>
