<svg xmlns="http://www.w3.org/2000/svg" width="17.857" height="17.877" viewBox="0 0 17.857 17.877">
  <path id="telephone-49" d="M76.928,76.332a2.569,2.569,0,0,0-2.893,1.184.859.859,0,0,1-.679.431c-.119.008-.239.011-.36.011a5.574,5.574,0,0,1-5.508-4.741.863.863,0,0,1,.409-.865A2.573,2.573,0,1,0,64,70.012c0,.046,0,.092,0,.137a2.608,2.608,0,0,0,.029.384A11.663,11.663,0,0,0,75.654,81.39c.136,0,.273,0,.408-.008.064,0,.127.008.192.008a2.575,2.575,0,0,0,.674-5.059M76,74.381a.714.714,0,0,1-.714-.714,3.578,3.578,0,0,0-3.571-3.576.714.714,0,0,1,0-1.429,5.008,5.008,0,0,1,5,5A.714.714,0,0,1,76,74.381Zm2.571-.429a.714.714,0,0,1-.714-.714,5.725,5.725,0,0,0-5.714-5.722.714.714,0,1,1,0-1.429,7.155,7.155,0,0,1,7.143,7.15A.714.714,0,0,1,78.568,73.953Zm2.572-.429a.714.714,0,0,1-.714-.714,7.871,7.871,0,0,0-7.857-7.867.714.714,0,0,1,0-1.429,9.3,9.3,0,0,1,9.286,9.3A.714.714,0,0,1,81.14,73.523Z" transform="translate(-63.997 -63.514)" fill="#222"/>
</svg>
