<svg xmlns="http://www.w3.org/2000/svg" width="205.813" height="205.813" viewBox="0 0 205.813 205.813">
  <g id="グループ_2278" data-name="グループ 2278" transform="translate(-180 -6677.742)">
    <ellipse id="楕円形_35" data-name="楕円形 35" cx="102.906" cy="102.906" rx="102.906" ry="102.906" transform="translate(180 6677.742)" fill="#fff"/>
    <path id="pen-156" d="M133.434,52.547,126,59.981l-22.3-22.3,7.424-7.432a7.883,7.883,0,0,1,11.15,0l11.15,11.15A7.884,7.884,0,0,1,133.434,52.547Zm-3.718-7.434L118.568,33.966a2.628,2.628,0,0,0-3.716,0L107.418,41.4l14.866,14.866,7.434-7.432a2.628,2.628,0,0,0,0-3.718Zm-46.9,58.054-24.155,1.858L60.514,80.87l38.7-38.7,22.3,22.3ZM67.2,81.619,64.23,99.451l17.838-2.972,32.015-32.015L99.217,49.6Z" transform="translate(185.474 6713.931)" fill="#ab9f66"/>
  </g>
</svg>
