<svg xmlns="http://www.w3.org/2000/svg" width="205.813" height="205.813" viewBox="0 0 205.813 205.813">
  <g id="グループ_2279" data-name="グループ 2279" transform="translate(-518.547 -6677.742)">
    <ellipse id="楕円形_35" data-name="楕円形 35" cx="102.906" cy="102.906" rx="102.906" ry="102.906" transform="translate(518.547 6677.742)" fill="#d8d2bf"/>
    <g id="note-185" transform="translate(585.66 6744.855)">
      <path id="パス_4916" data-name="パス 4916" d="M352.318,370.411a3.012,3.012,0,0,1,3.012-3.012h24.1a3.012,3.012,0,0,1,0,6.024h-24.1A3.012,3.012,0,0,1,352.318,370.411Zm0,12.049a3.012,3.012,0,0,1,3.012-3.012h24.1a3.012,3.012,0,0,1,0,6.024h-24.1A3.012,3.012,0,0,1,352.318,382.46Zm0,12.049a3.012,3.012,0,0,1,3.012-3.012h12.049a3.012,3.012,0,1,1,0,6.025H355.33A3.012,3.012,0,0,1,352.318,394.509Z" transform="translate(-331.232 -346.313)" fill="#fff"/>
      <path id="パス_4917" data-name="パス 4917" d="M136.871,151.952a6.024,6.024,0,0,1,4.259-1.765h60.245a6.024,6.024,0,0,1,6.024,6.024v40.924a6.024,6.024,0,0,1-1.764,4.258l-19.321,19.321a6.025,6.025,0,0,1-4.259,1.765H141.13a6.024,6.024,0,0,1-6.024-6.024V156.211a6.024,6.024,0,0,1,1.764-4.258Zm64.5,4.259H141.13v60.245h40.924l19.32-19.321Z" transform="translate(-135.106 -150.187)" fill="#fff"/>
      <path id="パス_4918" data-name="パス 4918" d="M600.56,618.653a3.012,3.012,0,0,1,3.012-3.012h20.815a3.012,3.012,0,1,1,0,6.024h-17.8v17.8a3.012,3.012,0,1,1-6.025,0Z" transform="translate(-555.377 -570.458)" fill="#fff"/>
    </g>
  </g>
</svg>
