<svg xmlns="http://www.w3.org/2000/svg" width="205.813" height="205.813" viewBox="0 0 205.813 205.813">
  <g id="グループ_2280" data-name="グループ 2280" transform="translate(-857.094 -6677.742)">
    <ellipse id="楕円形_35" data-name="楕円形 35" cx="102.906" cy="102.906" rx="102.906" ry="102.906" transform="translate(857.094 6677.742)" fill="#fff"/>
    <g id="search-156" transform="translate(919.732 6747.837)">
      <path id="パス_4919" data-name="パス 4919" d="M108.961,176.361a20.875,20.875,0,1,1,14.76-6.114A20.737,20.737,0,0,1,108.961,176.361Zm0-35.993a15.119,15.119,0,1,0,15.119,15.119A15.136,15.136,0,0,0,108.961,140.368ZM57.4,145.321l28.508-.14.028,5.754-28.508.14Zm0,28.46,28.508-.141.028,5.754-28.508.141Zm.014-56.992H134.4v5.754H57.417Z" transform="translate(-57.403 -116.789)" fill="#ab9f66"/>
      <path id="パス_4920" data-name="パス 4920" d="M786.2,702.917l4.012-4.125,14.14,13.751-4.012,4.125Z" transform="translate(-724.772 -649.733)" fill="#ab9f66"/>
    </g>
  </g>
</svg>
