<svg xmlns="http://www.w3.org/2000/svg" width="205.813" height="205.813" viewBox="0 0 205.813 205.813">
  <g id="グループ_2281" data-name="グループ 2281" transform="translate(-1195.641 -6677.742)">
    <ellipse id="楕円形_35" data-name="楕円形 35" cx="102.906" cy="102.906" rx="102.906" ry="102.906" transform="translate(1195.641 6677.742)" fill="#d8d2bf"/>
    <g id="check-68" transform="translate(1264.245 6740.38)">
      <path id="パス_4913" data-name="パス 4913" d="M193.181,69.543H180.968v-.589a5.176,5.176,0,0,0-5.176-5.176H151.186a5.176,5.176,0,0,0-5.176,5.176v.589H133.8a5.176,5.176,0,0,0-5.176,5.176V140.05a5.1,5.1,0,0,0,5.176,5.085h41.268l23.292-23.2V74.719A5.176,5.176,0,0,0,193.181,69.543Zm-41.359.046h23.243V75.4H151.822Zm-17.48,5.675H146.01v.771a5.176,5.176,0,0,0,5.176,5.176h24.606a5.176,5.176,0,0,0,5.176-5.176v-.771h11.577v40.768h-17.48s-5.721.727-5.721,5.9v17.389h-35Zm55.6,46.67-14.88,14.813V121.935Z" transform="translate(-128.621 -63.778)" fill="#fff"/>
      <path id="パス_4914" data-name="パス 4914" d="M304,447.412a2.95,2.95,0,0,1,.069,4.171l-.009.009a2.95,2.95,0,0,1-4.171-.069l-12.64-12.64a2.95,2.95,0,0,1-.069-4.171l.009-.009a2.95,2.95,0,0,1,4.171.069Z" transform="translate(-272.025 -400.254)" fill="#fff"/>
      <path id="パス_4915" data-name="パス 4915" d="M431.885,353.163a2.95,2.95,0,0,1-4.171.069l-.009-.009a2.95,2.95,0,0,1,.069-4.171l22.467-22.468a2.95,2.95,0,0,1,4.171-.069l.009.009a2.95,2.95,0,0,1-.068,4.171Z" transform="translate(-399.781 -301.895)" fill="#fff"/>
    </g>
  </g>
</svg>
