<svg xmlns="http://www.w3.org/2000/svg" width="205.813" height="205.813" viewBox="0 0 205.813 205.813">
  <g id="グループ_2282" data-name="グループ 2282" transform="translate(-1534.187 -6677.742)">
    <ellipse id="楕円形_35" data-name="楕円形 35" cx="102.906" cy="102.906" rx="102.906" ry="102.906" transform="translate(1534.187 6677.742)" fill="#fff"/>
    <path id="tm-finish" d="M108.33,74.988c-14.15,0-25.655,11.041-25.655,24.616a24.518,24.518,0,0,0,14.41,22.131v10.641a7.339,7.339,0,0,0,4.561,6.716v2.288a4.772,4.772,0,0,0,4.872,4.677h3.732a4.772,4.772,0,0,0,4.872-4.677v-2.285a7.347,7.347,0,0,0,4.561-6.718V121.734A24.61,24.61,0,0,0,134.09,99.6c-.1-13.576-11.61-24.618-25.76-24.618h0Zm1.866,67.584h-3.732a1.236,1.236,0,0,1-1.244-1.193v-1.64h6.221v1.64a1.236,1.236,0,0,1-1.244,1.193Zm1.711-6.317h-7.151a3.965,3.965,0,0,1-4.044-3.879V128.2H116v4.174a4.045,4.045,0,0,1-4.095,3.879Zm-3.577-25.361-3.885-6.813h7.722l-3.837,6.813ZM117.039,119l-1.089.447v5.271h-5.805V114.474a2.71,2.71,0,0,0,.724-.8l5.288-9.35a2.3,2.3,0,0,0-.051-2.436,2.95,2.95,0,0,0-2.488-1.294H102.991a2.951,2.951,0,0,0-2.488,1.294,2.3,2.3,0,0,0-.051,2.436l5.339,9.4a2.758,2.758,0,0,0,.727.8v10.194h-5.805v-5.271L99.624,119a21.089,21.089,0,0,1-13.27-19.395c0-11.639,9.9-21.137,22.03-21.137s22.027,9.5,22.027,21.137A21.313,21.313,0,0,1,117.039,119ZM64.58,94.685H74.2v3.566H64.58V94.685Zm19.341-17-6.8-6.529,2.627-2.521,6.806,6.528-2.63,2.522Zm45.653-2.522,6.806-6.528,2.627,2.521-6.8,6.529-2.63-2.522Zm12.249,19.518h9.622v3.566h-9.622V94.685Zm-35.668-35.5h3.715V68.42h-3.715V59.188Zm0,0" transform="translate(1528.517 6677.463)" fill="#ab9f66" stroke="#ab9f66" stroke-linecap="round" stroke-linejoin="round" stroke-width="1"/>
  </g>
</svg>
